<svg width="80" height="80" viewBox="0 0 80 80" fill="none" xmlns="http://www.w3.org/2000/svg">
<path fill-rule="evenodd" clip-rule="evenodd" d="M40 66.6666C54.7276 66.6666 66.6666 54.7276 66.6666 40C66.6666 25.2724 54.7276 13.3333 40 13.3333C25.2724 13.3333 13.3333 25.2724 13.3333 40C13.3333 54.7276 25.2724 66.6666 40 66.6666ZM40 73.3333C58.4095 73.3333 73.3333 58.4095 73.3333 40C73.3333 21.5905 58.4095 6.66663 40 6.66663C21.5905 6.66663 6.66663 21.5905 6.66663 40C6.66663 58.4095 21.5905 73.3333 40 73.3333Z" fill="#040921"/>
<path d="M40 23.3333C38.159 23.3333 36.6666 24.8257 36.6666 26.6666V43.3333C36.6666 45.1742 38.159 46.6666 40 46.6666H53.3333C55.1742 46.6666 56.6666 45.1742 56.6666 43.3333C56.6666 41.4923 55.1742 40 53.3333 40H43.3333V26.6666C43.3333 24.8257 41.8409 23.3333 40 23.3333Z" fill="#040921"/>
</svg>
