<svg width="80" height="80" viewBox="0 0 80 80" fill="none" xmlns="http://www.w3.org/2000/svg">
<path fill-rule="evenodd" clip-rule="evenodd" d="M0 9.99996C0 8.15901 1.49238 6.66663 3.33333 6.66663H8.12816C12.7168 6.66663 16.7167 9.7896 17.8296 14.2413L18.4359 16.6666H62.0091C69.6389 16.6666 74.4453 24.8621 70.7448 31.5231L61.4855 48.1897C59.7219 51.3644 56.3756 53.3333 52.744 53.3333H28.5385C23.9498 53.3333 19.95 50.2103 18.8371 45.7587L11.362 15.8582C10.991 14.3743 9.65772 13.3333 8.12816 13.3333H3.33333C1.49238 13.3333 0 11.8409 0 9.99996ZM20.1026 23.3333L25.3047 44.1417C25.6757 45.6256 27.0089 46.6666 28.5385 46.6666H52.744C53.9545 46.6666 55.0699 46.0103 55.6578 44.9521L64.9171 28.2854C66.1538 26.0593 64.5457 23.3333 62.0091 23.3333H20.1026Z" fill="#040921"/>
<path d="M30 66.6666C30 70.3485 27.0152 73.3333 23.3333 73.3333C19.6514 73.3333 16.6667 70.3485 16.6667 66.6666C16.6667 62.9847 19.6514 60 23.3333 60C27.0152 60 30 62.9847 30 66.6666Z" fill="#040921"/>
<path d="M63.3333 66.6666C63.3333 70.3485 60.3486 73.3333 56.6667 73.3333C52.9848 73.3333 50 70.3485 50 66.6666C50 62.9847 52.9848 60 56.6667 60C60.3486 60 63.3333 62.9847 63.3333 66.6666Z" fill="#040921"/>
</svg>
