<svg xmlns="http://www.w3.org/2000/svg" version="1.1" xmlns:xlink="http://www.w3.org/1999/xlink" xmlns:svgjs="http://svgjs.com/svgjs" width="1440" height="1500" preserveAspectRatio="none" viewBox="0 0 1440 1500"><g mask="url(&quot;#SvgjsMask1175&quot;)" fill="none"><rect width="1440" height="1500" x="0" y="0" fill="#0e2a47"></rect><path d="M0,582.937C114.009,589.082,227.534,564.769,327.458,509.534C431.858,451.825,517.153,366.636,577.476,263.725C642.392,152.978,723.695,23.689,683.754,-98.309C643.433,-221.468,464.455,-231.057,382.598,-331.523C296.533,-437.153,322.573,-625.024,202.353,-689.15C84.509,-752.009,-69.08,-698.768,-186.474,-635.071C-293.551,-576.972,-336.996,-452.918,-411.155,-356.267C-480.049,-266.478,-584.624,-198.224,-606.811,-87.246C-629.377,25.623,-585.183,140.959,-530.85,242.431C-478.797,339.644,-398.35,415.881,-305.532,475.418C-212.776,534.915,-110.038,577.006,0,582.937" fill="#0b2239"></path><path d="M1440 2227.788C1574.587 2220.485 1631.951 2047.9740000000002 1746.079 1976.268 1861.99 1903.442 2056.2309999999998 1931.887 2110.786 1806.338 2165.6130000000003 1680.162 2041.42 1547.768 1987.219 1421.3220000000001 1946.473 1326.2640000000001 1893.603 1243.217 1833.3690000000001 1159.144 1766.6480000000001 1066.016 1724.934 936.201 1615.462 902.433 1505.979 868.662 1402.832 967.908 1290.772 991.775 1166.211 1018.304 1002.116 952.105 921.052 1050.329 839.467 1149.184 930.886 1298.74 931.655 1426.911 932.284 1531.792 894.234 1634.899 925.161 1735.119 958.55 1843.319 1029.991 1932.399 1111.8020000000001 2010.687 1208.529 2103.249 1306.317 2235.042 1440 2227.788" fill="#113255"></path></g><defs><mask id="SvgjsMask1175"><rect width="1440" height="1500" fill="#ffffff"></rect></mask></defs></svg>