<svg width="80" height="80" viewBox="0 0 80 80" fill="none" xmlns="http://www.w3.org/2000/svg">
<path fill-rule="evenodd" clip-rule="evenodd" d="M40.0032 24.1202L38.1114 29.9426C36.7727 34.0628 32.9331 36.8524 28.6009 36.8524H22.4789L27.4317 40.4509C30.9365 42.9973 32.4031 47.511 31.0644 51.6312L29.1726 57.4536L34.1254 53.8551C37.6302 51.3087 42.3762 51.3087 45.8811 53.8551L50.8339 57.4536L48.9421 51.6312C47.6033 47.511 49.0699 42.9973 52.5748 40.4509L57.5276 36.8524H51.4056C47.0733 36.8524 43.2338 34.0628 41.895 29.9426L40.0032 24.1202ZM43.1734 12.3033C42.1756 9.23224 37.8309 9.23224 36.833 12.3033L31.771 27.8825C31.3248 29.2559 30.0449 30.1858 28.6009 30.1858H12.2199C8.99083 30.1858 7.64825 34.3178 10.2606 36.2158L23.5131 45.8443C24.6814 46.6931 25.1702 48.1977 24.724 49.5711L19.662 65.1503C18.6642 68.2213 22.1791 70.7751 24.7915 68.8771L38.0439 59.2486C39.2122 58.3998 40.7942 58.3998 41.9625 59.2486L55.215 68.8771C57.8273 70.7751 61.3423 68.2213 60.3444 65.1503L55.2825 49.5711C54.8362 48.1977 55.3251 46.6931 56.4934 45.8443L69.7458 36.2158C72.3582 34.3178 71.0156 30.1858 67.7865 30.1858H51.4056C49.9615 30.1858 48.6816 29.2559 48.2354 27.8825L43.1734 12.3033Z" fill="#040921"/>
</svg>
